/* XPM */
static char *_f7f689f36b5454cbb1b1f8ca7efb6acD0mlX6vsLjxYqetN[] = {
/* columns rows colors chars-per-pixel */
"64 64 125 2 ",
"   c #140E03",
".  c #171006",
"X  c #181207",
"o  c #1C150B",
"O  c #1F180D",
"+  c #1F1810",
"@  c #20190F",
"#  c #241D13",
"$  c #272016",
"%  c #282117",
"&  c #272018",
"*  c #2C251B",
"=  c #2F281E",
"-  c #30291F",
";  c #2D2620",
":  c #2F2820",
">  c #342D23",
",  c #373025",
"<  c #383127",
"1  c #373028",
"2  c #3C352B",
"3  c #3F382E",
"4  c #3E3731",
"5  c #3F3832",
"6  c #40392F",
"7  c #433C32",
"8  c #474036",
"9  c #484137",
"0  c #47403A",
"q  c #4C453B",
"w  c #4F483E",
"e  c #50493F",
"r  c #4F4841",
"t  c #544D43",
"y  c #564F49",
"u  c #575046",
"i  c #585147",
"p  c #575048",
"a  c #5A534B",
"s  c #595249",
"d  c #5A5448",
"f  c #5B5549",
"g  c #5B544A",
"h  c #5C554B",
"j  c #5C564A",
"k  c #5D574B",
"l  c #59524C",
"z  c #5B544C",
"x  c #5C554D",
"c  c #5D564C",
"v  c #5E574D",
"b  c #5C554F",
"n  c #5B544A",
"m  c #5E584C",
"M  c #5F594D",
"N  c #5F584E",
"B  c #5F584E",
"V  c #5F5850",
"C  c #5F5852",
"Z  c #5F5850",
"A  c #60594F",
"S  c #605A4E",
"D  c #615B4F",
"F  c #60594F",
"G  c #605951",
"H  c #615A50",
"J  c #625B51",
"K  c #625C50",
"L  c #635D51",
"P  c #635C52",
"I  c #645D53",
"U  c #645E52",
"Y  c #655F53",
"T  c #635C54",
"R  c #655E54",
"E  c #665F55",
"W  c #665F57",
"Q  c #635C52",
"!  c #665F59",
"~  c #666054",
"^  c #676155",
"/  c #676056",
"(  c #676056",
")  c #686157",
"_  c #686256",
"`  c #696357",
"'  c #686157",
"]  c #676058",
"[  c #67605A",
"{  c #696258",
"}  c #6A6359",
"|  c #6A6458",
" . c #6B6559",
".. c #6B645A",
"X. c #6C655B",
"o. c #6C665A",
"O. c #6D675B",
"+. c #6D665C",
"@. c #6E675D",
"#. c #6B645A",
"$. c #6E685C",
"%. c #6F695D",
"&. c #6F685E",
"*. c #6F685E",
"=. c #70695F",
"-. c #706A5E",
";. c #716B5F",
":. c #70695F",
">. c #716A60",
",. c #726B61",
"<. c #726C60",
"1. c #736D61",
"2. c #736C62",
"3. c #746D63",
"4. c #746E62",
"5. c #756E64",
"6. c #766F65",
"7. c #736C62",
"8. c #777066",
"9. c #777066",
"0. c #787167",
"q. c #787266",
"w. c #787167",
"e. c #797268",
"r. c #797268",
/* pixels */
"e u m L ^ ^ m i 9 9 7 6 2 > % % % > * > * 2 > O t E +.H i L i # t t v L H +.s d 9 9 7 7 7 > # $ * * * > * < < @ y S  .E d E v * ",
"S L U k q 3 < < 3 > , > # > t m L m H 7 2 v 7 2 U E S H L d w 7 E E E H q 7 > < 7 > > > # > e v U  .S q 2 t q > ^ E S H S s w 3 ",
"d 7 - , 9 u S _ S S O.^ q 3 9 w q 7 q - > s 3 t v E S v _ k 7 6 k 9 * < 7 y S E L L { U w 3 7 w 7 w 9 > > t q 7 s E S s H v 9 2 ",
"# # , u _ ^ L U _ _ d m O.q # # 2 > % % * * O > 7 e s d S t > # @ % * u E U U H E _ i m 1.w # # > = * # # > O > 7 w s s k y > @ ",
"i q q d U S S ^ d L d i i 2 3 O.E  .{ 8.3.k < 7 7 $ $ * * < 7 y y t 7 v H m L E y L s s v 7 3 +. .^ $.5.1.H > 9 q $ $ * * > 7 t ",
"m 8 2 9 i d i d d 7 6 7 > $ * < 7 3 7 3 6 w < w 7 > w y t H H S v q , q u v s s d 8 6 7 > % * < q 7 2 3 7 q < e 8 > q i t v S S ",
"7 3 6 7 2 > > < - > e U d d ^ U q q t v k v q w 7 7 u q 7 q 2 < 7 3 3 7 2 < * < - , t S s d E U 7 w q s S m q w 7 6 y q 7 q 3 2 ",
"$. . .O.S 7 $   i ^  .L U _ ^ U +.E 3 y 8 - 7 2 > % * # * % @ 9  .U O.;.S e # X t ^ { H E { U H O.U q w 9 7 < 3 < * * # # * # 7 ",
"S S ^ ^  ._ 2 7 U U L U ^ _ L d L u 6 6 S E 5.{ y q * 7 H 3 ^ m H E H U $.$.7 2 U E E E _ { E H U u 6 3 s  . .+.m 7 * 3 _ 7 i O.",
"U m L  . .m 2 t m S L U ^ _ ^ L u 6 O 7 q w 7 7 < > * 3 7 * m s H S m _ O.L 3 9 s k v m L E U m d q # > 7 y 7 6 < > - > 3 > s d ",
"$.L k S k w # * 2 2 2 < > > = * @ > 7 9 > # 3 s L v s y < > s s  .E k H S t * % 7 7 3 3 2 < > = @ * 8 3 2 # 2 i { k i i 3 > i k ",
"7 9 7 2 > > o O   X @ $ = , < < $ , d d w * 3 9 3 3 3 3 # @ > 2 7 w 7 3 > > # @     X @ * > > > # - i s k - < 7 7 < < 8 * O > 2 ",
"> % O = q $. . .$.$.$.$.;.1.$._ >.9 > t w t q v m E E m q % X * > * X * 8 _ +.O.;.>.>.;.>.3.>.+.>.t > q q i q y k _ E S q * O # ",
" .8 = w ^ 1.L k ^ U L L ^  .U m S 7 w { +.+.E  .S +.O.^ v > * t  .q * q L +.E v U U U L E E U S S w 7 { { ;.U _ m +.+._ S > * w ",
"L t w  ._ S k _ S S m m m S k u t 3 d d { U E i v L L v d > q +._ i q  .{ m S ^ H H v v v m k i w 2 w S >.S L k H v L S E < 6 >.",
"i 6 = 8 e d i t 8 9 9 7 7 6 3 2 * o > s w q 2 3 7 7 9 q q $ 7 e k 7 * 8 t s s w q q 7 7 7 7 3 2 * # > w w 7 7 6 3 6 w 6 q > < w ",
"7 7 3 < * * # # # > . @ * q , > # * $ * 7 k U U s t < O * ^ m q 7 < 8 6 # * # # % - # o * 3 7 * $ # # * 7 d ^ ^ v s 3 @ - m s d ",
"L O.L L { H y * e v , e S +._ S H E E { $.{ H H E +.s < 2 E _ ;.{ _ { L H U s > q s 2 7 U  .$.H U H U { +.{ U H m _ m 2 * m $.O.",
"E >.E H E k $.t v L > y U U { L _ ^ L H U L E ;.{ v H e $ 7 v m ^ $. .U ^ H ;.y s E , 7 O.H ^ H _ E H S H L _ +.^ v E y * 7 d L ",
"7 7 q m U i w > 2 3 # 7 t v { +.m U H m H H S L { k O.^ * > t u q q q s H s e < 3 7 % < i s E { S U L v v L L v E k E E > * 6 y ",
"t 7 < < # 2 - > q 9 3 3 2 7 > > 7 2 * % * * > 3 q s w 7 = o O 7 w 7 < 2 * 2 * * q 7 7 3 < 3 2 < 9 3 - $ % * > < w v s q * # % < ",
"H ^ $.S > u 7 3 E ^ 3.{ E +.k s X O * 7 q 3 > 3 > < # > w y y { k ^ +.E > y 6 > E S e.;.S  .E k O O * 7 9 3 , < > > O - q t y U ",
"m v k t 2 L q % < 3 q q q w q 7 - 9 k U E H L  .{ w = 9 v +.O.v _ H y w * s y - < 3 w w q w q 7 - 7 s E U H U {  .y * 7 _ $.E { ",
"q 7 3 > @ < 3 # # $ # % $ # * # # s 5.E k E _ S H S < 7 y s t t 8 7 3 7 # > 8 O @ * @ # * % % # # e $.E d U _ S H H 3 7 w s i w ",
"> * O # ;.3._ L H E O.+.$ 6  .;.3 3 $.U m E ^ L U U q < # - > * > * o # $.>._ ^ _ v ;.3.* < +.$.8 2 { O.v d ^ E E  .t > * * > = ",
"v q * # ^ ;.O.O.H ^ E H > w { L 8 * q i H v s i w w 7 > O # 3 y v w = # L $.O.{ S { ^ k 6 8 H ^ q > w t v  .E t w e 7 > * * 2 w ",
"$.v 3 * t w q w t w 7 q < % > 7 7 * * * , , 2 < 3 7 w H U  .E E ;.E 7 # q e w q i 8 9 q > # 2 7 3 * > * - > > 2 7 q t s m S E >.",
"q 7 -   # O # > # > * # 7 t S v t H _ s 2 * 8 E +.5.>.{ v ^ k k q 9 >   @ O % > * * - $ > e +.y E s H i q > > { 5.3.+.L _ +.v y ",
"* 7 s U >.{ _ { +.t = >  .E E O.{ L k +.^ 7 7 v y s y q 2 3 * > * 6 i U >.{ ^  .+.d - = { { U O.E H { O._ w 2 { w i S w 3 < * > ",
"^ E ^ E _ E E U _ H 2 # q t y w 7 q 7 w 8 * O 2 3 3 7 e t q * , ^ L E _ _ L L E ^ ^ 2 # q u t q 7 8 7 7 8 3 o = q < 6 8 t q = > ",
"L k k v s k k y q 7 2 7 7 # * q s v t q w q * 3 >.{ H y q 8 > d H k v v s d k y q 7 < q 7 * * 7 d H d e w w * > $.L { k w 7 , t ",
"7 3 3 3 - - > * < 7 u 5.{ 8 w { { { _ O.O.k > d q 7 2 < 9 t * * 3 3 7 2 * > < * - w e >.5.w 3  .U _ E _ ^ H 2 9 s 7 2 > 8 t - * ",
"8 w t H L O.H k e t 9 8 q < $ * > , = < - > * @ 7 v 3.+.d E v # 6 w t S S O.L i t t w q 9 , % * < > > 3 * > > # 3 m 0.$.d ^ m * ",
"m L m m q 7 2 3 3 = = - $ > w y s S t 7 2 w 7 > +.S t s H s q 2 L U k m e q 3 2 3 - - - $ - q t r y t 0 2 w 7 : +.H i k L S t 6 ",
"H t 2 3 3 q y ^ U S { H 7 3 w t w y q , 3 d w w u { E U +.v 7 6 k e 3 6 2 8 u O.U L ^ S q 3 9 y y s t < 1 p q 7 u L L H { v 7 < ",
"$ # * t E +.H H E ^ m S L q * * < = * # * > O < 8 d s w m v < # = O O q  .1.S d ^ O.k m O.q # - > : * + & 3 * 7 q y s t d v 5 # ",
"t q 8 v L E L +.y H E U s 7 7  .{ U +.3.+.d = 7 * % - * * * > w t q q L S m m 1.t U S S L 7 2 O.{  .1.3.$.v * < > # > > # * 3 w ",
"v w 7 t y s y v L 7 7 9 < * > > w q 8 9 7 q 2 t t = < q t m k H U q 2 w i m u i S q 7 8 2 = * > 7 7 7 7 q t 3 y t * < q w s v H ",
"7 , * 2 3 7 > > > > 7 s t u H H < 7 q k v S t e 7 7 s i w w 3 3 2 < > 3 2 2 , < = > q i t d U S 7 q 9 t m S w e q 7 z s t r 7 7 ",
"H ^ _ O.t 3 # O q U { E { E S  .+.H e y q 7 2 , > * , * # * # 3 d ^  .O.t 6 $ O 6 S O.U U ^ U ^ $.U q t t 8 , > 1 * > # & : # 4 ",
"H v S E O._ < 7 U L H L ^ { U v  .H 2 3 H O.$. .k 7 # 7 L 2 _ { m L S U ;.$.2 = _ U L U  . .U k ^ d 9 2 i U +.+.T q # < ! 7 l [ ",
"U v H  .+.L 3 t H H U U E ^ E H e 7 * 3 t 7 7 t 3 > * 7 8 = m m S U ^ _ ^ m 7 e m m S U _  ._ ^ t 9 - , 9 t w t 1 < * 1 7 < C v ",
" .L m S v t $ * 2 3 7 3 3 3 2 < * > > 3 < * < w E v d s 3 > k s _ ^ m L S t * $ 6 6 7 6 3 2 < , * $ < > 7 # > 8 [ C s v 7 : s s ",
"q t e 7 > 2 # # O # # # # # # # @ 3 H ^ q - 6 k 9 8 9 7 * * 3 7 9 t q 7 2 3 $ @ o O # # # # # $ # > ^ ^ v # < s t q 7 r > + 2 7 ",
"* # X # 3 ^ E L ^ _ { O.1.0.8.>.+.< * 7 w q q t i H S y 7 #   # * % X # < k _ O.U ^ _ $.3.0.0.0.5.q + 7 q s q t u U d s 7 # o O ",
"E 8 - q U 3.^ H U H S H ^  .^ H { 9 t  .{ ^ U L S $.;.{ v - * w ^ 9 * q L $._ L _ ^ U U _ _ U S E t 7 +.E { v { m $.{ { L > * q ",
"H t w O.{ H S  ._ ^ U H H H k u w 2 u E m { { m H E ^ L v > 9 { L t 9 O.;.^ L S U L S S U U S v q 5 t { +.C E { U U U U ^ , 3 O.",
"v 7 > w s v s y w w w q 9 9 7 7 > o 6 m u t q 7 w q w e w % q s k 9 - q u k m u e w q q q 9 7 7 > * > y t p q 7 7 w u 9 e > 7 i ",
"< * > * @ # > # X * O $ # < * # X X o # 3 y v i u q > X * H s 7 < - > * # # * * O * @ # # > * # X X o # < w s k y y > X $ v H q ",
"H O.{ ;.k s w # y y * 8 s +.{ u S m H ^ O.+.{ ^ { U t < > H { E H { O. .k k 7 * e t * 3 H ;.;.E i v H L _ $.$.{ ^ S U < * S H >.",
"{ ;.d H L E ;.w d H 3 S { _ +.L E E E H S S H U E ^ U q * 9 v { O.{ H s S  .^ s s  .3 t O.m v m H _ _ S v H U H L { U e - 7 k  .",
"w e y m +.s i 7 q 7 # 3 t v { _ k E _ E U { _ L v E { s = > q d t w s v +.v y 9 7 8 # 2 i H { >.L E ^ _ ^ E H m m { S H < > w y ",
"7 2 < - # - # * 2 7 7 3 > < 3 t w 7 > % % > 3 9 v v u w * # * > 7 7 < > $ * * % 3 7 7 3 * > < 8 t 7 = * * > 3 q v y H y * # O < ",
"k E H v > U 6 6 ^ E  .H L _ q 7 # # * 3 3 > * > > > % < 3 9 t m i O.k H > d 9 < { m +.$.m $.s 9 # # * < 3 > > > > > * 2 6 9 w m ",
"m _ S s > S 7 - 3 9 t q t s u v * 3 y E E S H ^ k t > q H { E  .v { v d * s q * 7 q t t 8 y t y * 6 i L L H H H v k * 8 U E $.L ",
"y q 8 2 - 6 7 # # * * * > * * $ * t $._ v U _ H E k > 7 H U y t y 8 q < % 3 q # @ - # - - - * * % w O. .H H U H _ k < 3 s E t s ",
"% $ O O ^ _ v d i H k m * 2 u { , 7 3.^ H ^ ^ E E E 8 > * < > * * $ O X k E L i m t m ^ > * L E < 9 { v H U { U O.E w > * > 2 * ",
"k 7 * $ O.+. .1.H +.{ m > t ;._ 9 , t k E m i s y y 7 > O # < w S 7 * # L O.$.$.E  ._ E 2 q 5.^ w 2 w d { m s s e e q 6 * # > 7 ",
"+.S 6 # t s y w k e t t * # 6 7 < * $ * < 2 7 7 3 7 9 y t L E _ ;.H 7 # w s s w s u q t > # 3 7 2 $ % * 2 3 2 3 7 7 8 e y s L $.",
"t t <   # * > > % * * * 2 7 d t e L H w > # 2 k E >.e.>.S +.E v t t 3   # * > > # > * * < 8 s t t s U e > # > s E >.0.+.{ O.E L ",
"* > q v  .i y H O.q * < 1.{ U { E H s { +.t w { d S S t 2 7 > * % > q k { u t v ;.q > > O.U ^ { { s k +. .t q  .t m U w 9 8 > % ",
"^ H E { { S H { ^ ^ < @ t v i w w y w t w > O 2 7 2 7 q q 7 * > E L E { O.H S { +.E 7 @ w k k w t w w t q > # < 7 7 7 3 q 8 * > ",
"S H U m i S H t q 9 2 3 7 # * 9 w y q 7 w q # < { L H v y q > k S ^ E v v L S s q 9 2 3 7 * # q w t 9 7 9 q * = +.L E d s q > t ",
"w 8 q 8 > > > * > < t 5.E 3 q  . .;.$.;.>.H > k d q > = 7 7 # 2 q q 8 7 < > * - > 3 q 8.O.e < $. .>.+.5.;.H 6 q U 8 < > 7 7 $ > "
};
