/* XPM */
static char *_4e001a12d1c4121d19d74bf0d0f6951XzCBvT8fbX6gQ8Od[] = {
/* columns rows colors chars-per-pixel */
"64 64 133 2 ",
"   c #0E0E0C",
".  c #11120E",
"X  c #151614",
"o  c #171914",
"O  c #191A16",
"+  c #1D1D1B",
"@  c #1E201B",
"#  c #21231E",
"$  c #242522",
"%  c #262923",
"&  c #292A26",
"*  c #272928",
"=  c #2C2D2A",
"-  c #2E312C",
";  c #31322E",
":  c #343532",
">  c #363934",
",  c #393A36",
"<  c #3E3E3C",
"1  c #3F3F3D",
"2  c #3D3F3E",
"3  c #3E3E3E",
"4  c #3F3F3F",
"5  c #3D3E3C",
"6  c #3C3D3A",
"7  c #3D4037",
"8  c #3D4035",
"9  c #3D4039",
"0  c #3F4239",
"q  c #3E413A",
"w  c #3E403B",
"e  c #3F403B",
"r  c #3F423B",
"t  c #3F413C",
"y  c #3E403D",
"u  c #3F413E",
"i  c #3E403F",
"p  c #3F413B",
"a  c #40413C",
"s  c #40433C",
"d  c #40423D",
"f  c #41423D",
"g  c #41433E",
"h  c #40423F",
"j  c #42433E",
"k  c #41443D",
"l  c #42453E",
"z  c #42443F",
"x  c #43443F",
"c  c #43463F",
"v  c #41433E",
"b  c #45483F",
"n  c #46493F",
"m  c #3F4140",
"M  c gray25",
"N  c #414141",
"B  c #424240",
"V  c #414342",
"C  c gray26",
"Z  c #434343",
"A  c #434540",
"S  c #424441",
"D  c #434542",
"F  c #444540",
"G  c #444740",
"H  c #444641",
"J  c #454641",
"K  c #454742",
"L  c #444643",
"P  c #464742",
"I  c gray27",
"U  c #454744",
"Y  c #464644",
"T  c #474745",
"R  c #444541",
"E  c #454841",
"W  c #464940",
"Q  c #474A41",
"!  c #464942",
"~  c #464843",
"^  c #474843",
"/  c #474A43",
"(  c #474944",
")  c #464845",
"_  c #474943",
"`  c #484B42",
"'  c #494C43",
"]  c #484944",
"[  c #484B44",
"{  c #484A45",
"}  c #494A45",
"|  c #494947",
" . c #494B46",
".. c #4A4B46",
"X. c #494C45",
"o. c #4A4D44",
"O. c #4B4E45",
"+. c #4A4D46",
"@. c #4A4C47",
"#. c #4B4E47",
"$. c #4C4F46",
"%. c #494B45",
"&. c #4A4A48",
"*. c #4B4D48",
"=. c #4C4D48",
"-. c #4C4F48",
";. c #4C4E49",
":. c #4D4E49",
">. c #4D4F4A",
",. c #4E4F4A",
"<. c #4C4D49",
"1. c #4D5047",
"2. c #4D5047",
"3. c #4D5049",
"4. c #4E5148",
"5. c #4F504A",
"6. c #4E514A",
"7. c #4E504B",
"8. c #4F524B",
"9. c #4F514C",
"0. c #4E514A",
"q. c #50534A",
"w. c #50534C",
"e. c #50524D",
"r. c #51524D",
"t. c #51534E",
"y. c #51544D",
"u. c #52554E",
"i. c #53544F",
"p. c #53564F",
"a. c #51534D",
"s. c #535551",
"d. c #575952",
/* pixels */
"X.r , s / G G / k / / / 6.6.[ / / k / ; G s s A > A , t > - = > 5 : s , , : , 5 , = % &.-.u.[ + > s 8 8 , : , : , , 6 5 6 > > , ",
"/ s r / X.X.X.6.X.6.6.-.u.6.X./ / / s > : X./ [ s s , t 6 : * , 6 , s , : # & % % $ % [ / [ G # k X.' X.[ G [ G 5 5 6 6 6 > : = ",
"G k G X.w.6.6.u.6.u.u.6.u.w.X.X.6.u.k s % -.G G G 6 > 6 6 > + 6 6 6 G 6 , O = $ & % % Y G [ k # s X.$.q.6.X.w.-.A A s 5 m 5 : $ ",
"r k / -.6.6.6.6.X.u.w.6.w.6.-.6./ [ s / @ -.*.-.[ r 6 , 6 6 + 5 , r s 6 6 + 5 > > = $ Z G [ s + , / ` 2.-.X.6.X.Y ( A 5 m Z : $ ",
", r G X.X.X.X.X./ 6.6.X.6.6.-.6.w.-.6.u.% k G [ t 6 6 : > 6 $ , 6 s s 6 , + 4 , = & + , s G , O r ` X.6.6.X.w.-.G ( A 6 6 t : $ ",
", 6 k / X.X.X.X.[ 6.X.[ -.6.X.X.X.k / k o # # $ # @ @ @ O $ X @ # # # % +   @ + + $ + , s s , # 6 / [ 6.-.X.9.*.[ [ G 6 6 6 : $ ",
", r s k / [ / / [ X.[ / X.-.X.X.X./ / G $ 6 6 6 , - = 6 : > : > ; = = > = = = : * & + , s s , # , k k [ / / *.[ *.[ A 5 t 5 : $ ",
"r s k k k / G k / [ G k X.6.X.X.X.6.k k % w.X.[ G ; - X.s t A s [ s s [ 6 Y 5 Y Z , + : s G : + , k k / / / -.X.[ A 5 6 t 5 ; $ ",
"A ( [ [ X.*.[ A *./ A G ( [ ( ( / k G ( # -./ [ / , # / k / / / -.[ G s 5 6 5 Z Z Z + = , : = % ; ; : : , : : , : ; ; = > : @ $ ",
"> A 6.6.[ G G G A A k G G G G ( *.G A G # X.k s k > @ G k / / / / G s s 5 6 5 Z 5 , o $ = = & % & % % % # % & & % # % % = = & t ",
"G ( [ ( / G k t , 6 s s s t s A s s G G % 6.[ X.k > # / b / ` [ G s 6 6 5 6 , 5 5 5 # ; 6 s s k G s , 6 % r A 6 s 6 k G G , ; k ",
"X.( G G [ [ k 6 , r s s t s s s r A X.k # r 6 G / , % X.` ' X.X.-.G r 6 6 , , > > > + > [ -.-.-.( ( r A + s [ t k 6 s X.9./ : = ",
"6 s [ *.[ G k A , 6 r 6 6 t r 6 6 r G 6 % / G X./ , # ' / X.X.$.w.[ s 6 , , , , > > O : / [ G G [ *.G X.o s *.A G s 6 t / ( 6 % ",
"= & % % % % % % $ % & % & = & % % $ % # @ G k G b > # ` ` $.6.q.6.( s 6 , , 6 5 Z 5 + : [ [ [ [ s / s G o 6 ( s -.w.-.X.( [ A & ",
"-.6 = = ; ; - & ; , s s s G A r A 6 , = & X.b ` b > # / b ' 2.6.[ G t 6 , , 6 4 6 , o - k G G [ Y [ Z A @ s -.( , s A X.G s t % ",
"6.X.X.-.X.s , > & > G / G / / A G G G ; % s k 6./ > @ k r k b / Y A s 6 , > , 5 : : O - r 6 , 6 Z Z , > + 6 / A / G s -.[ s t % ",
"$.X.` X.6.-.k > + t [ / ( G / / -.X./ , % ( k *.G ; & & o + # + % % . o o O o % $ o % = % + + + + + # o % 6 s G G [ / X.*.X.G - ",
"' ' X.X.-.X.G 6 + t ( G [ ( X.-.u.6./ , $ ( A *.[ , ; &.[ &.Z & w.w.k G s , % & ` 6 r G s s s s r 6 6 ; = s G ( G [ ( -.*.[ A = ",
"` 2.6.2.X./ s 6 + 5 G s G G X.X.w.u.X.> $ *.G [ G ; + Z &.&.Z O [ G s s G G & ; [ s r s s G [ G A s r , @ , t s A [ ( *.X./ r % ",
"b ' 6.$.[ / s 6 + 5 A s A k / / [ 6.X., % 9.[ / w.k % &.&.Y [ # 6./ / r , 6 o & s r 6 r s G G 6 k 6 6 t o 6 G G k G A ( G s , # ",
"k b X.$.-.*./ s @ Z ( / X.[ X.X.G X./ > % w.X.X.s , $ [ [ s s O r r [ G s s # ; s / [ G [ G G s -.A r G o G [ ( k G s A k s 6 % ",
"b ' 6.6.9.6.G 6 + t ( [ -.-.6.-.[ -.[ > $ [ G [ 6 ; # Y [ Y s + s G G s , , # ; G [ [ G G s s G 9.G r G + G [ G G / k G k s 6 % ",
"' $.q.q.9.*.k , + t G G X.*.6.-.X.6.X., # 6 : > ; % + 6 , 5 > + O # O # # & % > G [ [ / [ s 6 [ w.[ G G $ ( -.*.G ( A G G k 6 % ",
"8 b 2.q.6.X.G t $ s G A [ [ -.X./ -.6.k # : # % % @ & Y 6 5 : $ 6 G , k k 6 : 6 G [ G [ -.s 6 [ 6.[ G s # s G ( G ( G ( G s 6 $ ",
"n ' $.2.6.-.G r $ 5 A / *.G / X.6.X.6.k & s.-.[ -.% ; > 5 > 1 + 6 s G G G s + 6 -.[ X.[ / G k G ( *.G G # *.-.9.[ ( s ( ( k , # ",
"b ' 2.2.6.X./ s @ s [ [ -.6.u.u.6.[ X.6 $ 6.X.*.G + & 5 G , , X s G X.-.-.G % 6 -.[ [ [ / G G [ [ *.G ( % 9.9.-.X.[ s G G t , $ ",
"b ' q.q.w.6.[ G # A / s k k / k w.-.X.r & -.-.s.-.# & G Z 5 6 + , r G [ G 6 + ; -.[ [ [ [ G [ -.[ -.[ G # G [ *./ G s A k t 6 % ",
"b $.6.q.w.6.[ k $ t s t / [ -.-.X.X.X.r = G ( -.s # % 5 : , , + 6 s G / s , % > [ [ G G G G G [ G X.*.A # A w.d./ [ G G k t 6 % ",
"' ' X.$.6.-.G 6 % 6 > > s s G / X.-.[ , % = % % + o : &.s , = X = ; ; : ; ; % : [ [ [ [ G k G [ [ [ [ s % / -.*.*.6.X.[ A t , # ",
"' $.$.X.-.X.G 6 o & # O # # % % @ % & - = - ; : - % * $ O X % & & & % = & ; = , % # # % # + @ # + o # & % -.u.( ( *.( [ G A 6 # ",
"b $.6.X.[ / G k $ t , = : A 6.X.6.u.u.u.w.X.X.-.G s &.Z Z $ & 6 s k 6 / G [ [ w.G G [ [ [ G G [ [ G [ k : -.9.k A / k A G G t % ",
"s / X./ k r s k o Z 6 $ & s 6./ X.6.X.-.w./ X.6.$.G [ s [ + = w.G / r X./ [ G [ [ [ [ -.-.X.X.-.( X.u.s % , / G [ [ s t t s 6 @ ",
"& # & % # % $ + + $ $ X = 5 s G X.r ' 2.q.q.' d.q./ G A A @ > Z A k s A / [ [ ( w.6.[ / X.9.6.[ A ( &.-.+ = : : - - = = = & % % ",
"s , : : * * : > : : = + : Z G [ X.k 6.q.u.u.' q.` / [ G t + , ( A k s A / [ [ [ ( / A k / X.[ A 9.9.( G @ : - $ # = - = % # % > ",
"G G ; &.: % > s Y , : $ ; 6 G G G G 2.6.u.p.' ' ' X.6./ t O : , G A k A G ( [ [ / G G G [ *.X./ 6 ( [ / & s G , & t 6.-.G r k w.",
"s Z $ w.> + : s &.: - + & > 1 r 6 k ` X.6.u.' b X.' [ k s + = % % $ # # # # $ $ % % % % % & = & @ & = = o % & # = 6 [ -.6.[ k G ",
"-.Y X &.: o , G &.> : # & , Y G t / [ X.6.q.6.b k k k r t @ : - > : : ; - - ; ; > : ; ; ; : > , 6 , > r , r > & , k / / 6.6.X.X.",
"-.Y O Y , O 6 s [ 1 , % : Z &.<.[ 6.-.6.u.q.q./ / ` X.k 6 + 6 [ [ [ / A s t s k G s r 6 6 r G [ X./ X.u.u.w.X.k % > r k / / k / ",
"s 5 O Z 6 + 5 6 Y [ Z % : G [ &.X.9.X.u.p.2.6.k X.X.-./ s + t s.[ [ / A s t s A k t r r r r G *.X.6.u.q.X.` / k O ; / X.X.` b / ",
"5 , o > : O G Z Y e.T % > Z G Y A [ k 6.q.' X.r b r k A A @ 6 *.X.X.[ G A A G [ k s s A A A [ w.6.6.$.b $.u.6.s @ ; k b / ' / ' ",
", 5 o 6 > + Z <.&.&.Y & ; 6 Z G ( ( / [ X.6.X./ [ s [ *.G O 6 -.( -.[ s G ( A A ( k A G G s A X.X.2.6.6.X./ b b O ; b X.X.$.b , ",
"Z 5 O Z , o 6 &.s.e.Y $ % & & % % & = = - - - & % = = & @ o , t A [ G s A A s A G s s G ( G ( X.X.$.6.6.6.X.` b @ ; k / / X.' / ",
"[ 5 O G 6 O > <.Z Y G % ; s Z , 6 s / / / / / G s X.t 6 & = Z A A G k s G k s [ G s s G [ ( ( [ X.X.X.6.6.6.[ G % : / -.X.[ [ [ ",
"G > X , : O ; G Y &.Y & : Y Y 6 k ( *.-.6.6.6.X./ / t A > $ 6 A A s 6 s ( G A [ ( A k / [ ( G A [ / / [ X.X./ k # ; k 6.6./ k r ",
"Z > + ; = % > G Z G s % : Y T 1 Y ( [ -.6.u.6.[ [ s k k 5 + , Z Z 6 , 6 / G s G ( G A ( [ ( A s [ G s k G ( G s % ; 6 / ( A s t ",
"% # . + O $ ; 6 6 6 , $ : Z G 1 s Z k G X.X./ k G k G > > + Z A Z t 6 t [ [ A G G A A G / / G s ( k r 6 s A k t + # % % # $ % % ",
"= - & = % ; 6 <.<.G 5 $ & & % + @ $ # $ % % % # % & % # $ O 6 , t A A A [ [ G G G G G G G A k s s 5 6 6 5 t t 5 % : r , ; - : : ",
", 6 , , % * = Z 1 , , % ; ; = = = - : ; ; ; ; ; 6 6 ; : = % , 6 , G ( A G G A G / [ ( G s s t r , , > , 6 6 6 6 + > 9.9.Y A s 6 ",
"6 > > , & o , 6 5 s > + & Y Y s , # &.Z t [ , = X.6.G [ , O , , , s G / -.[ ` [ [ [ [ [ / / s r s 6 , , , , , , # : G [ G G [ [ ",
"Y 5 , , ; + > : s Z , + % s Y Z , + Z 5 s -., & w.u.[ [ 6 + , , s G G G X.[ [ 6.6.6.6.6.6.X.b k r r s s s , > : + ; Z [ / G ` G ",
"&.Z 5 5 : + > > > 6 > # % 5 5 6 , O 6 6 s 6., & -.w.[ / , + , , 5 s s s G G G -.X.X.X.X.X./ k r 6 r r 6 6 6 6 6 + : G &.[ [ [ ` ",
"Z s s 5 = O , s 6 Z 6 * = G Z s , X , 6 s 6., & w.u.w.-., # 5 Z s G k s G [ [ 9.-.6.6.6.6.X./ k 6 r r 6 , , 5 s $ : Y -.[ [ [ [ ",
"Z 6 6 5 : O : ; , , ; + & Z Z s , O 5 5 k -., & w.s.s.X.> + , s 6 s s s [ [ ` -.X.X.6.6.6.6.X./ r G [ / Z 5 , > $ : G Y G G G ` ",
"[ 6 , 5 > + & O + # # X * s 6 , , O s s s [ : & u.u.s./ : + > , , s s s G G s [ / [ X.6.6.6.X./ G $.6.[ G G Z 5 + ; 5 s 6 6 s s ",
"Y 6 , 5 > @ : * $ & = $ : Y s , , X 5 5 s [ ; % G G G , : % > 6 6 s 1 5 s s s G A G / X.X.X./ k s b s , , 6 5 6 + = 6 5 6 6 6 6 ",
"5 , 6 5 : $ Z T Z Z , % & , , 6 , X , 6 s [ ; % % + # + + O & = : : : ; : ; ; : ; ; : > , > ; - = ; : ; = = & # + = 5 Z s 6 s s ",
"G Z 5 , > O Z G Z 1 5 : @ > 5 6 , O 5 Z r b : # G 6 , , , > : : ; ; = = # + & # % & + : % % - o # # # # # # $ % = 6 5 Z G s / $.",
"G s 6 Z Z O Y [ &.w.[ : + Y [ 6 > O 1 Y G G : # w.X./ G Z 1 5 5 Z s 1 1 : : k s A 6 = X.[ X.X.# s s G / Y Z 5 6 $ > 5 Y [ k G ` ",
"Y Y Z G &.O &.G [ s.[ : + &.G > : X , 5 6 r ; % -.X./ G Z 6 5 5 Z 5 6 5 = & s Y G , % *.u.s.-.+ b G [ -.-.[ s , + > s [ [ k G G ",
"5 [ G 5 Z O ,.Z <.e.Y 1 % T Z 5 > X : = = : = % -.X.[ G 5 , , 5 5 , , , & $ 6 T 6 : % X.w.w.[ @ [ ` / [ &.[ Z 5 # > 1 Z G r k b ",
"6 s 5 6 5 X -.-.&.-.Y 5 % G G Y 6 + : = ; : & # X.-.X.G 5 6 5 Z 5 , , 5 & % 5 T t : % *.w.w.*.$ X.[ / ` [ T G Z + : 6 s s r G G ",
"G 6 , Z 5 O s ,.Y &.T : % Z &.G 5 % Z Z G s = % / [ [ b 6 6 5 5 Z 5 , , * $ , 5 Z ; + G -.6.( + / / [ [ &.T Z 1 O : , 5 k s / G ",
", : : > ; % : , Z 5 G : = 5 G > : $ Z 6 6 , % % 6 r 6 , : : > > , > > > * & 5 5 A : @ ( -.-.( @ s s G G G s 5 , + : : : : : , : ",
"O $ * # + : ; % - + = & = % % O $ X = $ % # o # # % % # + + # + + + @ % $ = Y Y 5 : $ &.[ / G # # # # # + + + O $ = % + + @ # # "
};
