/* XPM */
static char *_0b0c776c9184a0392e1506561fd0d5dIFEcVlNE44ix8PO9[] = {
/* columns rows colors chars-per-pixel */
"64 64 228 2 ",
"   c #4A381D",
".  c #453522",
"X  c #4C3B24",
"o  c #43352B",
"O  c #4B3C2B",
"+  c #463828",
"@  c #523E25",
"#  c #523F2C",
"$  c #4C3D32",
"%  c #4A3F39",
"&  c #513D36",
"*  c #4E402D",
"=  c #4F4127",
"-  c #5B4326",
";  c #53432D",
":  c #5B462D",
">  c #5D4A2B",
",  c #564625",
"<  c #4D4134",
"1  c #4E453A",
"2  c #534334",
"3  c #5A4734",
"4  c #5B4B34",
"5  c #53463B",
"6  c #5A473A",
"7  c #55493C",
"8  c #5C4C3C",
"9  c #554837",
"0  c #5E5033",
"q  c #5D513D",
"w  c #624B2E",
"e  c #604728",
"r  c #61512F",
"t  c #624D35",
"y  c #614E3B",
"u  c #6A4F31",
"i  c #635235",
"p  c #6A5335",
"a  c #63533C",
"s  c #6B553C",
"d  c #6C593D",
"f  c #64593D",
"g  c #735A3E",
"h  c #775B3B",
"j  c #554C43",
"k  c #5B4E43",
"l  c #574C47",
"z  c #5D5144",
"x  c #5D544B",
"c  c #5B544B",
"v  c #575049",
"b  c #614F44",
"n  c #645444",
"m  c #695644",
"M  c #665945",
"N  c #6B5B44",
"B  c #63564B",
"V  c #695749",
"C  c #64594C",
"Z  c #6B5C4C",
"A  c #725C43",
"S  c #715E4B",
"D  c #785F42",
"F  c #625651",
"G  c #655B52",
"H  c #6B5D53",
"J  c #695E58",
"K  c #665D58",
"L  c #725F53",
"P  c #6D614D",
"I  c #6F6147",
"U  c #716146",
"Y  c #7C6344",
"T  c #73634C",
"R  c #7A654D",
"E  c #7C6A4D",
"W  c #77694F",
"Q  c #656056",
"!  c #6C6153",
"~  c #6D635A",
"^  c #676358",
"/  c #736454",
"(  c #796654",
")  c #766955",
"_  c #7B6A54",
"`  c #73665A",
"'  c #796659",
"]  c #75695B",
"[  c #7B6C5B",
"{  c #7E705C",
"}  c #6F6460",
"|  c #726560",
" . c #756B62",
".. c #7B6D62",
"X. c #796E69",
"o. c #7D7164",
"O. c #7C736B",
"+. c #846B4D",
"@. c #816748",
"#. c #826D54",
"$. c #896F52",
"%. c #816E5C",
"&. c #837255",
"*. c #8B7355",
"=. c #83725C",
"-. c #8A755C",
";. c #8C7B5D",
":. c #937A5C",
">. c #957958",
",. c #8F734C",
"<. c #816F62",
"1. c #837463",
"2. c #8A7664",
"3. c #867965",
"4. c #8B7A64",
"5. c #83756A",
"6. c #8A7669",
"7. c #857A6B",
"8. c #8B7C6C",
"9. c #927D65",
"0. c #917E6B",
"q. c #987F60",
"w. c #857C72",
"e. c #8B7E71",
"r. c #887E7C",
"t. c #927F70",
"y. c #9D815A",
"u. c #A2865F",
"i. c #8E8166",
"p. c #8D816C",
"a. c #938265",
"s. c #9B8265",
"d. c #93826C",
"f. c #99856C",
"g. c #96886D",
"h. c #9C8A6D",
"j. c #8D8274",
"k. c #8D847A",
"l. c #938473",
"z. c #9A8673",
"x. c #958974",
"c. c #9B8B74",
"v. c #92867B",
"b. c #958A7C",
"n. c #9C8C7B",
"m. c #9C917D",
"M. c #9F9176",
"N. c #A48B6D",
"B. c #A38D74",
"V. c #A18E7D",
"C. c #A88F71",
"Z. c #A49376",
"A. c #AB9375",
"S. c #A4937C",
"D. c #AB957B",
"F. c #AB997C",
"G. c #A7997E",
"H. c #B39B7D",
"J. c #B69B7A",
"K. c #958D83",
"L. c #9B8E82",
"P. c #9D9184",
"I. c #9C9389",
"U. c #8F8681",
"Y. c #A18F81",
"T. c #A39483",
"R. c #A89683",
"E. c #A69986",
"W. c #AC9B84",
"Q. c #A39689",
"!. c #A5998B",
"~. c #AB9C8A",
"^. c #B39E83",
"/. c #B19E8A",
"(. c #A59D93",
"). c #AB9E91",
"_. c #ADA18D",
"`. c #AEA086",
"'. c #B4A38C",
"]. c #BBA68B",
"[. c #B9A588",
"{. c #ADA193",
"}. c #ABA399",
"|. c #B3A493",
" X c #BBAA94",
".X c #B4A699",
"XX c #B7A99B",
"oX c #BBAC9B",
"OX c #B8A893",
"+X c #BEB19C",
"@X c #BDB1A3",
"#X c #BEB4AA",
"$X c #B8AEA5",
"%X c #C3A98B",
"&X c #C9AF8A",
"*X c #C2AD94",
"=X c #C0AE9D",
"-X c #C8AF91",
";X c #C2B195",
":X c #C4B39C",
">X c #CBB599",
",X c #D2B99C",
"<X c #D1B699",
"1X c #CEB28D",
"2X c #C1AFA1",
"3X c #C3B4A3",
"4X c #C9B6A3",
"5X c #CBBAA3",
"6X c #CDBBAA",
"7X c #C5B8A8",
"8X c #D3BEA5",
"9X c #D9BFA4",
"0X c #DFC39E",
"qX c #DBC2A6",
"wX c #D3C3AC",
"eX c #DAC5AB",
"rX c #DAC9AF",
"tX c #CDC2B4",
"yX c #D5C5B1",
"uX c #DBCAB3",
"iX c #DAC9B7",
"pX c #DDD0BD",
"aX c #E3CCB2",
"sX c #E5D3BA",
"dX c #E2C9AB",
"fX c #F2DDC6",
"gX c #EFDECA",
"hX c #FEEAD2",
/* pixels */
"( X . . : X ; @ 3 @ t t OX3 2 + '.O 9 + 7 1 O.5 < < 8 < 5 7 j j j C J 1 F ~ r.l j c j z / 8 n 8 ! 5 8 8 < B q 1.2 8 4 x._ a n 4 ",
"z.S. Xc. Xc.f.W.B.R A : W.2 2 ; :X2 n C H G v.w.b.e.T.o.5.~ x j z H O.G F F r.j c l B j.3X{.W.n.Q.o.1.1.! / B 1.q q 8 R.z.%.T S ",
"4.N N X '.-.4 R R : i : R.t 4 ;  X; 8 8 5 j ` C ] B 8.5 z j z j x F ~ K F K K.l F l 5 ` j.) ) ( 8.7 z B z Z M 8.q M N R.4.W a a ",
"4.t 3 @ >X*.@ R -.R A t 2.; 8 3 '.O 9 7 7 x H 7 k n T.7 B j x v x F F x G K U.j j x z ! [ Z ) =.T.7 8 8 z C B 1.8 ! T c._ N t t ",
"A s i t ].#.s s.g $.#.-.f.A m # '.. * z z 7 x j k C ).5 H j c j 1 F F x ~ F X.j c G k ! [ ) %.4.S.2 z 7 B C k H B Z M d.=.W N i ",
"A i > A >XA.A.qX,XaX9XaXrX*X'.d.W.a n / z 5 G B B H !.C !.I.}.(.K.I.k.O.w. . .c x x 2 ! %.( 2.c.wX1.P.j.P.).(..XI.v.8.~.g.f d , ",
"A s s s H.$.D D.+.$.s.s.9.#.A i #.a 8 [ $ 7 G x B C 8.z Q.` x v Q x c j c F G j x ! B [ [ T W =.~.n 1.8 z H G J G H Z 4.{ 4 ;.i ",
"t g R @ A.A.C.dXp w s.*.-.R i N A t O l.< 5 j z B z ` 7 Q.G c F K c  .^ c x F z C ] k B M T %.2.S.M z.B B G B F F H B / W d F.r ",
"A.].^.H.-X-X%X,X:.s.:.D s p R #.R S.OXsX{.7.w.I.j.o.` 8 j.j c j K ~ ~ | G Q  .` L.tXj.|.7X=X|. XwXd.OXM C B x | G ]  .8.R.:XaX;X",
"- w - w D.:.N.qX:.+.:.: g - p : p A U +X8 7 j C G z B B {...~ C ~ ~ ~ ` G C C j x k.B Z 1.Z ( =.d.[ +XZ B H G | B G k 8 N W S.&.",
"a.9.*.H.%Xs.N.qX+.Y :.u A #.c.D.H.[.R.gXj. .~ o.H H / H {.~ x x ` C Q O.w.j.j.7.k.@Xb.Q.!.1.5.n.n.2.oXq C ..~ G ..7.j.b.T.T.uXW.",
"> p p ;.#.@.N.,XD D C.Y D R R #.Y +.A '.9 < 1 x B G H Z !.H x Q k.G B C G x B x G K.B ` H ! ` 8.8.[ +XZ ! 1.` H x x C B Z M W.( ",
"> A d i Y p :.%XY w C.: $.U $.E +.$.#.iX+ z x l G G H H !.` x B L.H C z C B ! ~ ~ (.Q B B o...` 1._ oXZ Z 7.] C ` Q ! C Z B Q.' ",
"w w w s g Y :.%Xw : N.w *.d N d Y @.#.5X2 z H F C G ! ! b.H B G ).] ` B H B C Q x 7.C C X.O.X.` o.2.oXN q 8.) B z z ! ! ` ! v.C ",
"#.s d -.d q.H.aXH.^.aXD.*XZ.B.^.N.:.$.R.M j ` | G ~ 5.5.P.5.v.I.tXn.L.5.7...] ] O.k.K J | J ~ O.] x.pXm.{ _.b.m.j.7.j.o. .` 5.F ",
"+.U *.E p u p A.*.*.,Xs.8X-.R A +.e > R.a B ` z C C ` ! 7.H ` Q .X1.1.Z ] ! C C G v.Q ~ x ` ~  .) ) ~.1.P E.p.m.o.{ o.! C H ~ B ",
"1X&X0XJ.>.>.Y :.g u %X@.9XC.D.^.<X>X].eX Xx._.|.j.1.1./ 5.Q Q G ~.) T.P 1.T..X.X7XiX|.l.).v.n.n.8.5.z./ q x.) 3.P ) { 8.P..XoXL.",
"y.u.u.,.@.h Y Y - h <X$.qXD R @.s.@ i 4.4 a T.Z n M / ! o.~ ^ Q m.( m.q Z ] 5./ ..` / / ) Z 3.1.%.1.8.) B 8./ p.z C / ) M M / Z ",
"J.s.:.*.q.+.h u +.:.-X+.qXs R D ;XE ( 4.M M m.B M V Z V ~ ~ K z 3.o._.! ! ! e.] [ Z ` ../ ! o.7.1.' ` ! Z o.Z 5.B C ! ] Z Z  ...",
"].E *.:.^.F.B.*X8X:XsXuXhX:X:XD.5X*.2.=.M B P.Z / Z / 5.L.}.}.K.b.!.7Xj.[ ` L.5..... .O...` ! 8.v.z.v.Q.).).j.Q.w.o.` o.~ ~ ` H ",
"D.d R A W 4 @ U s N c.4 yXf a N 5XW n 8 B M j.7 k M / ` H H K x z ! 1.H B Q v. .` ` ~ | | X.~ 7...` H ! H B B k.F K K  .F H | | ",
"( : ; : N 4 3 ; t ; Z a c.8 q n g.4 a z B k e./ ' S / Z /  .| c M ] 8.] H ! v.~ o.~ K X.~ | X.` ..` ] o...Q G w.~  . .w.~ }  . .",
"( a ; 4 T T N 4 P q n N W.a M 8 5X3 M 1./ ] Q.B V %.n.%.Z Z o.` ) 6.|.1.[ ] Q.o.O. .K X.X.X.O. .b.' [ [ o.o.o.K.O.O.O.K.O.O.X.X.",
"d.=./.4XyXuXW.W.d.4.( T :Xa T n :X[ 1.8.7.1.XX3X6XuXfX4X=XOXE.V ( 4. X( 6.5.XX7.j.P.5.K.$X}.}.#XtX~.~.b.7.5.o.K.w.O.O.I.O.~ K | ",
"s ; 3 t c._ S U T f N T R.U ( U :XU T / ! M 3.a =.-.8XR d.4.) ( _ d./.4.d.d.4X=./ [ o.[ 6.] O.` ~.( _ P [ o.] v.o.o.w.L.w.5. ...",
"_ A y s '.=.t &.N s a a -.i W ( >XU M 1.[ q 4.U &.-.8X&.9.W _ 4.-.*.d.2.f.d.:Xd.2.[ ) 6.z.<.<.[ G._ 3.) ) [ ] j.o.~  .j.5.o.] [ ",
"-.A A s W.c._ 9._ &.%._ d.W &.#.*X&.N 3.) M c.( _ ;.eXf.h.U =.c.z.s.s.9.s.c.:X9.2.&.N 2.d.1.[ 1.~.i.M.p.8.7.7.8.o.! ` 8.1.o.{ o.",
"$.s T s S.W.f.R.W.W.W./. XS.c.d.].9._ 4.Z M d.W d.9.eXF.eX;XOXOX].*X].^.W.].8XB.4.f.T 4.4.2.1.0.OXz.'.'. XXX@X.Xj.7.e.v.1.) ) / ",
"d 4 4 : z.4.N R.t 4 4 n Z n N N Z.#._ g.n M ( U &.E ].T Z.d.T N U R R *.*.4.'.S.9.G.( 4.4.2.%.4.S._ g.=.=.] [ / ` ] ..o.[ [ 8.{ ",
"_ ( ( U d.( n m.8 8 M M V B ' 2.*.#.0./.( 3.8.8.9.4.'.A S.4.) ) 4.d.=._ ( =.'.S.c.'._ d.V.x.4.l.G.=.R.[ ' ] ..5.5.5...` ' 1.x.( ",
"=.&.=.( { P ) n.M V [ ! M z ! ' _ 9.V.6X8.n.~.~./.B.z.R 5Xc.../ p.l.2.[ 2.g.:X`.'.wXg.z.~.W.T.~.|.n.3X<.[ 1. .5.5.7.1.1.8.z.~.8.",
"_ { N Z 4.n P 3X* 8 ] Z ! ` 7.8.[ 2.6.6X1.' l.R._ %._ R 5X' ) [ S.4._ 2.x.4.G.g.S.eXd.( 3.8.z.z.T.z.3X/ [ e.[ ..] ....1.7.1.n.1.",
"a _ =.T / V ) oX9 8 d.Z [ [ 5.' 2.d.z.iX8.8.R.6.0.d.0.( 4X5.6.Z S.4.B.f.f.G.S.R.W.pXS.( 2.E.l.8.5.o.XXo.5.8.7.] 7.1.7.v.e.j..Xo.",
"i A ) / ' n n '.4 f S.N ) n V B S ) / 7XL m / %.9.*._ T oX%.5.<.W.s.c.9.#.4.#.4.0.:Xl.[ z.l.l.8.[ o.T.7.3._.l.1.{ ) ] { ] ] L./ ",
"m R T a Z V M E.8 N W.( =.Z n Z ) W [ yX/ [ 1.d.c.*.T _ :Xd.5.( ].9.f.*.9.9.2.4.0.6X[ %.5.6.l.5./ =.n.p.2.oXc.8._ ( { { [ ) n./ ",
"T %.T 4 V Z V c.a 4 W.Z n.T V M =.N ( oXa %.z.0.9.a.&.N -.T ( _ 5Xh.9.R _ -.%.=.x.4X1.' 5.1.z.8.0.d./.d.g.OXc.f.&.( &.[ %.) x.) ",
"( S S S 1.<.) R.~.OXuX5XuX4Xz.S.'.4.-.W.N N -.4.f.Z.Z.h.W.'.6XyXsXeXaXeX^.^.0.4.Z '.1.[ ) n.l.0.S.d./.S.>XfXuXrXuX:X XR.c.2.x.) ",
"_ A V n L ' Z 2.m a W.N  Xa n 8 U U U &._ U 9.h.;.&.E E -._ ( U :Xf.'.*.( R g.4.2.d.T 1.l.z.[ 8.4.#.*.*.9.*Xc.^.*._ *.4.=._ 2.S ",
"B.4.%.V V / V V m n W.U eXS =.( c.Z.Z.W.W.R.5XOX`.h.h.-.-.T ( [ 5Xa.5X-.c.d.wX'.W.oXoX/  X XoX2.4.4.2.4.*. Xf.'.4.a.V.OX'.'.~.n.",
"-.a m V V Z b n 8 a d.N 5XS ( N 4.4 ; { S U OXf.f.#.&.( =._ ( / '.9.*Xd.N U d.( 2.x.[ 8.l.8.' 3.8.4.4.2.4.4Xc.W._ [ =.d.[ [ / V ",
"T _ S Z n n 5 k n 4 4.W :XT N 8 OX) ( [ N / 5X%.U 4.=.Z ( / [ [ c.g.5X&.a [ '.=.8.3.{ 8.l.1.[ 1.1.5.[ 6.[ 4.2._.=.2.) l.' 1.[ / ",
"-.4.( / V B H e.n.S. Xx.6X=.5.8.+X[ / ) ' ( OXT d.c.x.{ n.T.XXXX6X:XuXm.d.S.~.=.[ [ [ n.z.[ ' 8.l.v.n.E.~.{.~.7XQ.T.8.Q.1.5...` ",
"( _ 4 n n 2 $ k 7 M Z 4 c.n M n b.M M M ) M T.%.( ( [ 8 Z H ] H 1.4.c.) / [ 1.! ] [ ] l.8.] / 1.1.] [ / ] / [ j./ ! M j.! Q G C ",
"W T . 2 n k $ $ 2 7 2 < T.B n < oXP Z M ' n 8.V Z ) l./ [ `  .H Z [ 8.Z Z ! 8.{ [ 1.[ o.1.] [ [ 5...1.o.] Z / j.! Q H b.` ~ ~ ~ ",
"=.c.8.n.!.b.` G B B C 8 !.k B k 3Xn P ] 1...|.l.z.z.oXp.e... .H ..[ 8.Z / ] T.] 8.e.l.8.n.8.L.P.P.8.7.l.1.] 1.~.o.] ! L.~ Q ~ ~ ",
"_ i.[ ' 7.7.x B l 7 C k P.j C B 7Xn ] 3./ / E.z.c.z.3Xl.L.j.5...o.] e./ ..o.XX[ 8.6.j.v.P.6.L.{.XXl.1.7.[ ' 1.!./ ! ` !.o. ...` ",
"0 a 4 8 ..5.1 5 j < x j j.x B k 7Xq M [ Z / 8.) T ) T.P 1.] C H ..o.j.o.o.o.XXo...] ` 7.7.` ..v.Q.1.1.5.1.[ 5.l.) / [ ~...[ ..H ",
"T d 3 ; / o.O k 1 o j < ~ z B B +Xf T =.N Z o.' M T S.n ] / H 5./ o.o.o.o.o.|.6.8.5.Z 1.o.5.[ 6.Y.1.8.) ( Z 2.8.2.[ ) n./ ' 1.` ",
"U W &.U ;.:Xg.W.|.).!.3X@X!.b.i.W.&.&.z.N Z [ ' [ 6.oX=.3XoX=X6XoX:X:X~.c.z.R.4.4.8.[ ) 1.] 8.8.oX/. X:XOX5X5X5XOX'.R.c.1./ 1.V ",
"m N a , E s.i 4.O $ $ k B 8 q a Z.d E S.( n ' ) ' ( ~.S d.%.%.%.=.{ =.&.&.*.f.&.T z.%.=.' 5.8.8.4.=.z.-.W #.&.&.T _ &.4.%./ 2.Z ",
"2 8 =   E a.i G.2 8 k B B z n a &.i N W.Z V H ) Z M V.T 0.( 6.%.4.) ) ) [ [ 0.&.U W.V ' 1.1.M z.x.=.z.( W _ &.&._ _ [ [ T N 2.n ",
"T.=XW.4.-.9.N 4X2 k k 5 8 z / _ G.`.W.:XXXT.T.).XXT.OX( l./ 2.1.8.[ ) ) 2.l.T.V./.6XT.8.E.Q..X!.x.( z.N ) [ =.4.[ 1.0.n.S.c. Xd.",
"2 y # t f 4.S oXO j G l B n C n N i a S.2 / 5.B Z / 8./ |.1.1.[ l.[ / M / ) [ ) [ ~.8 ( ` 5.H 5.8.4.OXS Z [ %.6.5.[ / T T N g.a ",
"6.0.t.V./ Z n 2Xk b ~ k H  .e.l. XOX'.yX!.v.L.j...7.5.M XX[ ( [ 5.` [ ..b.E.|.|.R.V.5.E.T.' l.z.( 4.oXn Z 8...) 1.5.l.S.~.R.eXf.",
"2 6 V ' V n M oX$ 7 ` k B k z 8 N N n E.Z H H H M / / B oX' L L z.] ! M ' ' ) [ 1.OX1.6.5.' ' ) [ =.OXn / L.../ ` / / / W N Z.0 ",
"O 3 M y V 8 M |.2 k <.V Z k k 8 Z f V E.n z ] B ` [ ] V XX/ Z B n.! n 8 ) ) ) 4.5.oX/ 1./ 2.[ ( d.8.XX/ ) l.H ` V B Z T ) N G.i ",
"8 2 4 ' + 8 n 3X2 8 l.M ) 8 n V M a n T.n z z Z / ! o./ .X' H ` 6.a P =.) P =.=.=.W./ 2.1.[ Z 4.=.p.x.n n T.` [ Z V M Z M N g.i ",
"; 4 N 4.a V Z |.=.2.OXd.E.n.6.1.) N M n.B n H ` o.7.1.[ |.n.l.T.+Xc.G.n.d.d.x.{ 4.~.( =.2.=.) [ =.x.c.T 5.6XT.n.l.8.=.{ W I 4.0 ",
"a a 8 ( Z Z N 2.f T Z.W 4._ ' [ ( Z / 6.8 8 ` H ] 3.1.{ T.n.l.n.wXS.W.f.4.d.4.U _ x.T ( =.4.=.( 2.8.8.Z 1.oXT.T.5.1.[ [ T U [ 4 ",
"Z.Z.4.8.) 8 8 Z ; a c.d 2.a / 1.x.n.oX7XT.n.|.7.[ 3.3.( l.' H M '.E a.=.4.c.S.m._.oXT.T.~.W.W.l.) T ( Z Z x.N d.2.8.x.R.S.R.W.c.",
"0 N 3 M M 2 8 / 4 3 a.f c.9 8 8 %.n / / B C b./ / ( ( T 2./ Z V  X&.s.R N Z ) / Z Z M / [ ) 1.' [ Z ) ) N z.d S.f U ( 8.) Z V y ",
"U U ; 9 8 2 2 n 4 = =.a W.8 8 6 6.; 8 Z H V l.M / T T _ [ ) V S B.*.S._ T [ 8.[ ! Z Z [ ] Z ` ] ) Z ) ( T G.W F.a U U g.T V V n ",
"3 M 4 8 n H ` l.W.G.;Xz.:X/ Z Z V.4 6 n B n z.T Z N _ 4.c.n.n.V.*X].qXB.2.2.l.H B z x  .` H ` o.6.0.S.'.'.*Xh.].;.a.*.W.( V H k ",
"; a + + $ k o . . X f ; =.O + $ 5.2 8 8 2 6 t.n 8 ; a ; n 9 n 6 s A 9.m t 8 [ 5 x B x ~ B k z H 8 8 t N T > i ;.> i ; d.b 6 V & "
};
